<svg xmlns:xlink="http://www.w3.org/1999/xlink" xmlns="http://www.w3.org/2000/svg" viewBox="0 0 512 512" class="c-sidebar-nav-icon" role="img" width="24"  height="24" ><path fill="#FFFFFF" d="M459.26,96,328,225.7V96H293.475L168,223.267V16H16V496H496V96ZM464,464H48V48h88V264h36.778L296,139.018V264h38.764L464,136.3Z" class="ci-primary" fill-opacity="0.5"></path><polygon fill="#FFFFFF" points="136 328 136 336 168 336 168 328 168 304 136 304 136 328" class="ci-primary" fill-opacity="0.5"></polygon><rect width="32" height="32" x="136" y="376" fill="#FFFFFF" class="ci-primary" fill-opacity="0.5"></rect><polygon fill="#FFFFFF" points="216 328 216 336 248 336 248 328 248 304 216 304 216 328" class="ci-primary" fill-opacity="0.5"></polygon><rect width="32" height="32" x="216" y="376" fill="#FFFFFF" class="ci-primary" fill-opacity="0.5"></rect><polygon fill="#FFFFFF" points="296 328 296 336 328 336 328 328 328 304 296 304 296 328" class="ci-primary" fill-opacity="0.5"></polygon><rect width="32" height="32" x="296" y="376" fill="#FFFFFF" class="ci-primary" fill-opacity="0.5"></rect><rect width="32" height="32" x="376" y="304" fill="#FFFFFF" class="ci-primary" fill-opacity="0.5"></rect><rect width="32" height="32" x="376" y="376" fill="#FFFFFF" class="ci-primary" fill-opacity="0.5"></rect></svg>