<svg xmlns="http://www.w3.org/2000/svg" xmlns:xlink="http://www.w3.org/1999/xlink" style="isolation:isolate" viewBox="0 0 375 80" width="375" height="80"><defs><clipPath id="_clipPath_a7Q2tmMyutFotEhO6NWkz5Bo6v7cXsYl"><rect width="375" height="80"/></clipPath></defs><g clip-path="url(#_clipPath_a7Q2tmMyutFotEhO6NWkz5Bo6v7cXsYl)"><g id="Group"><g id="Group"><path d=" M 58.179 58.761 C 58.179 57.871 58.179 57.151 58.179 56.431 C 58.189 47.621 58.199 38.811 58.209 30.001 C 58.209 28.281 58.219 28.281 59.889 28.281 C 63.389 28.271 63.389 28.271 63.389 31.761 C 63.389 41.381 63.399 51.011 63.399 60.631 C 63.399 63.141 62.599 63.951 60.109 63.971 C 57.019 63.981 53.919 64.001 50.829 63.961 C 49.829 63.951 49.479 64.251 49.499 65.291 C 49.559 68.511 49.529 71.731 49.509 74.961 C 49.499 76.951 48.589 77.871 46.579 77.871 C 32.359 77.881 18.139 77.881 3.909 77.871 C 1.829 77.871 0.849 76.861 0.849 74.771 C 0.839 60.681 0.839 46.581 0.849 32.491 C 0.849 30.201 1.869 29.201 4.159 29.191 C 7.169 29.181 10.179 29.191 13.179 29.191 C 13.639 29.191 14.099 29.191 14.749 29.191 C 14.749 27.531 14.749 26.001 14.749 24.471 C 14.749 22.491 14.739 20.521 14.749 18.541 C 14.759 16.341 15.769 15.321 17.999 15.311 C 23.109 15.291 28.229 15.311 33.339 15.311 C 39.359 15.311 45.369 15.341 51.389 15.301 C 52.439 15.291 52.859 15.581 52.789 16.681 C 52.699 17.911 52.769 19.151 52.769 20.551 C 41.839 20.551 31.039 20.551 20.149 20.551 C 20.149 23.481 20.149 26.241 20.149 28.971 C 22.509 29.291 24.869 29.461 27.149 29.941 C 38.699 32.351 47.629 42.031 49.229 53.781 C 49.409 55.091 49.369 56.441 49.549 57.751 C 49.599 58.111 50.049 58.711 50.339 58.711 C 52.859 58.791 55.399 58.761 58.179 58.761 Z  M 6.229 34.531 C 6.229 47.281 6.229 59.881 6.229 72.661 C 7.199 72.661 8.089 72.661 8.979 72.661 C 20.269 72.661 31.559 72.651 42.849 72.681 C 43.939 72.681 44.389 72.431 44.339 71.251 C 44.249 69.281 44.259 67.301 44.329 65.331 C 44.369 64.231 43.959 63.941 42.919 63.941 C 41.549 63.941 40.179 63.791 38.819 63.621 C 27.419 62.141 17.129 52.161 15.279 40.751 C 14.949 38.701 14.799 36.611 14.569 34.521 C 11.799 34.531 9.069 34.531 6.229 34.531 Z  M 20.279 34.341 C 20.149 34.731 20.099 34.811 20.089 34.891 C 20.069 35.101 20.059 35.321 20.059 35.531 C 20.209 43.781 23.759 50.211 30.509 54.861 C 34.279 57.461 38.549 58.641 43.119 58.721 C 43.509 58.731 44.249 58.331 44.249 58.131 C 44.179 56.271 43.989 54.421 43.809 52.231 C 41.019 54.081 38.289 54.841 35.339 54.561 C 32.329 54.271 29.679 53.081 27.639 50.831 C 23.259 46.001 23.189 40.711 26.359 34.941 C 24.229 34.741 22.259 34.541 20.279 34.341 Z  M 35.729 39.661 C 34.639 38.931 33.599 38.261 32.599 37.551 C 31.879 37.031 31.439 37.241 30.919 37.901 C 28.789 40.621 28.919 44.531 31.289 47.101 C 33.659 49.661 37.689 50.081 40.559 48.081 C 41.849 47.181 41.859 46.781 40.649 45.671 C 38.189 47.181 36.239 46.881 35.109 45.121 C 35.689 44.311 36.439 43.671 36.609 42.911 C 36.879 41.731 35.809 41.301 34.779 40.981 C 35.079 40.551 35.329 40.221 35.729 39.661 Z  M 67.169 13.781 C 63.259 13.781 59.429 13.781 55.599 13.781 C 55.599 17.701 55.599 21.531 55.599 25.381 C 59.499 25.381 63.299 25.381 67.169 25.381 C 67.169 21.421 67.169 17.621 67.169 13.781 Z  M 44.889 5.261 C 44.889 7.901 44.889 10.441 44.889 12.991 C 47.539 12.991 50.089 12.991 52.699 12.991 C 52.699 10.381 52.699 7.871 52.699 5.261 C 50.009 5.261 47.459 5.261 44.889 5.261 Z  M 64.539 5.201 C 64.539 2.121 64.539 2.121 61.409 2.121 C 58.259 2.121 58.259 2.121 58.259 5.291 C 58.259 8.391 58.259 8.391 61.369 8.391 C 64.539 8.391 64.539 8.391 64.539 5.201 Z " fill="rgb(237,237,237)"/><g id="Group"><g id="Group"><g id="Group"><path d=" M 89.959 63.931 L 83.159 63.931 L 83.049 63.651 L 68.459 28.411 L 75.509 28.411 L 86.559 55.151 L 97.639 28.411 L 104.649 28.411 L 90.089 63.651 L 89.959 63.931 Z " fill="rgb(237,237,237)"/><path d=" M 108.199 42.401 L 108.199 38.041 L 114.679 38.041 L 114.679 42.401 L 114.679 55.331 L 114.679 61.811 L 114.679 63.971 L 108.199 63.971 L 108.199 61.811 L 108.199 42.401 Z " fill="rgb(237,237,237)"/><path d=" M 124.699 54.261 L 123.779 54.261 C 121.509 54.261 119.599 52.911 118.719 51.001 C 118.399 50.291 118.219 49.511 118.219 48.701 L 118.219 47.741 L 118.219 44.551 L 118.219 43.601 C 118.219 40.551 120.729 38.041 123.779 38.041 L 142.659 38.041 C 145.709 38.041 148.219 40.551 148.219 43.601 L 148.219 44.561 L 148.219 45.551 L 141.739 45.551 L 141.739 44.561 L 124.709 44.561 L 124.709 47.751 L 142.669 47.751 C 144.899 47.751 146.849 49.101 147.729 51.011 C 148.049 51.721 148.229 52.501 148.229 53.311 L 148.229 54.271 L 148.229 58.411 C 148.229 61.461 145.719 63.971 142.669 63.971 L 123.789 63.971 C 120.739 63.971 118.229 61.461 118.229 58.411 L 118.229 56.461 L 124.709 56.461 L 124.709 57.451 L 141.739 57.451 L 141.739 54.261 C 141.739 54.261 124.699 54.261 124.699 54.261 Z " fill="rgb(237,237,237)"/><path d=" M 158.239 38.041 L 175.269 38.041 L 176.189 38.041 C 179.269 38.041 181.749 40.551 181.749 43.601 L 181.749 44.561 L 181.749 45.661 L 181.749 46.721 L 181.749 55.291 L 181.749 56.351 L 181.749 57.451 L 181.749 58.411 C 181.749 61.461 179.269 63.971 176.189 63.971 L 175.269 63.971 L 158.239 63.971 L 157.319 63.971 C 154.269 63.971 151.759 61.461 151.759 58.411 L 151.759 44.561 L 151.759 43.601 C 151.759 40.551 154.269 38.041 157.319 38.041 C 157.319 38.041 158.239 38.041 158.239 38.041 Z  M 175.269 46.721 L 175.269 45.661 L 175.269 44.561 L 172.219 44.561 L 158.229 44.561 L 158.229 57.451 L 172.219 57.451 L 175.269 57.451 L 175.269 56.351 L 175.269 55.291 L 175.269 46.721 Z " fill="rgb(237,237,237)"/><path d=" M 191.809 63.971 L 185.289 63.971 L 185.289 44.561 L 185.289 43.601 C 185.289 40.551 187.799 38.041 190.849 38.041 L 191.809 38.041 L 198.889 38.041 L 202.929 38.041 L 205.619 38.041 L 205.619 44.561 L 202.929 44.561 L 198.889 44.561 L 191.809 44.561 L 191.809 57.451 L 191.809 63.971 Z " fill="rgb(237,237,237)"/><path d=" M 223.329 63.931 L 223.329 29.651 L 223.329 28.411 L 229.849 28.411 L 240.549 54.971 L 251.169 28.481 L 251.209 28.411 L 257.689 28.411 L 257.689 29.721 L 257.689 63.931 L 251.169 63.931 L 251.169 45.911 L 244.049 63.691 L 243.939 63.941 L 237.139 63.941 L 237.029 63.691 L 229.839 45.841 L 229.839 63.941 L 223.329 63.941 L 223.329 63.931 Z  M 287.819 28.411 L 286.899 28.411 L 267.739 28.411 L 266.779 28.411 C 263.729 28.411 261.219 30.891 261.219 33.971 L 261.219 42.891 L 261.219 49.411 L 261.219 63.931 L 267.739 63.931 L 267.739 57.411 L 267.739 51.461 L 286.899 51.461 L 286.899 57.411 L 286.899 63.931 L 293.379 63.931 L 293.379 49.411 L 293.379 42.901 L 293.379 33.981 C 293.379 30.891 290.899 28.411 287.819 28.411 Z  M 286.899 42.901 L 286.899 44.991 L 267.739 44.991 L 267.739 42.901 L 267.739 34.901 L 286.899 34.901 L 286.899 42.901 Z  M 323.549 28.411 L 322.589 28.411 L 303.429 28.411 L 296.909 28.411 L 296.909 51.361 L 296.909 63.931 L 303.429 63.931 L 303.429 51.361 L 322.589 51.361 L 323.549 51.361 C 326.599 51.361 329.069 48.851 329.069 45.801 L 329.069 44.841 L 329.069 33.971 C 329.079 30.891 326.599 28.411 323.549 28.411 Z  M 322.599 44.841 L 303.439 44.841 L 303.439 34.891 L 322.599 34.891 L 322.599 44.841 Z  M 332.619 28.411 L 340.689 28.411 L 349.789 40.701 L 358.859 28.411 L 366.969 28.411 L 353.829 46.151 L 366.969 63.931 L 358.899 63.931 L 349.799 51.611 L 340.699 63.931 L 332.629 63.931 L 332.629 63.901 L 345.769 46.161 L 332.619 28.411 Z " fill="rgb(237,237,237)"/></g></g><g id="Group"><path d=" M 368.739 30.811 C 368.739 29.271 369.929 28.081 371.459 28.081 C 372.989 28.081 374.159 29.251 374.159 30.781 C 374.159 32.321 372.959 33.511 371.439 33.511 C 369.909 33.511 368.739 32.341 368.739 30.811 Z  M 373.629 30.811 C 373.629 29.541 372.699 28.571 371.449 28.571 C 370.199 28.571 369.289 29.511 369.289 30.781 C 369.289 32.051 370.219 33.021 371.469 33.021 C 372.709 33.021 373.629 32.081 373.629 30.811 Z  M 370.379 29.261 L 371.529 29.261 C 372.239 29.261 372.679 29.571 372.679 30.221 C 372.679 30.691 372.459 30.941 372.139 31.081 L 372.719 32.211 L 371.979 32.211 L 371.459 31.171 L 371.099 31.171 C 371.099 31.231 371.099 32.211 371.099 32.211 L 370.399 32.211 L 370.399 29.261 L 370.379 29.261 Z  M 371.489 30.661 C 371.819 30.661 371.989 30.541 371.989 30.261 C 371.989 30.001 371.829 29.881 371.489 29.881 L 371.089 29.881 L 371.089 30.661 C 371.089 30.661 371.489 30.661 371.489 30.661 Z " fill="rgb(237,237,237)"/></g></g></g><g id="Group"><path d=" M 327.979 65.341 C 327.959 65.301 327.929 65.291 327.889 65.301 C 327.879 65.301 327.869 65.291 327.859 65.291 C 326.699 65.291 325.549 65.291 324.389 65.291 C 324.329 65.291 324.259 65.281 324.199 65.311 C 324.159 65.301 324.129 65.301 324.099 65.331 C 323.999 65.311 323.899 65.331 323.809 65.381 C 323.769 65.371 323.739 65.371 323.709 65.401 C 323.609 65.401 323.519 65.431 323.439 65.481 C 323.389 65.481 323.349 65.491 323.319 65.531 C 323.249 65.551 323.169 65.551 323.109 65.611 C 323.089 65.621 323.059 65.631 323.039 65.631 L 323.049 65.631 C 323.039 65.631 323.029 65.641 323.029 65.651 C 322.989 65.651 322.959 65.661 322.939 65.701 C 322.879 65.721 322.839 65.751 322.799 65.781 C 322.769 65.781 322.749 65.791 322.739 65.821 C 322.729 65.831 322.709 65.831 322.699 65.841 C 322.679 65.831 322.679 65.841 322.679 65.851 C 322.609 65.881 322.559 65.941 322.499 65.981 L 322.509 65.981 C 321.989 66.381 321.639 66.901 321.449 67.531 C 321.419 67.621 321.379 67.721 321.399 67.821 C 321.369 67.871 321.369 67.921 321.359 67.981 C 321.309 68.241 321.329 68.511 321.329 68.781 C 321.329 71.021 321.329 73.271 321.329 75.511 C 321.329 75.571 321.319 75.641 321.339 75.701 C 321.309 75.861 321.309 75.861 321.429 75.871 C 321.449 75.881 321.469 75.881 321.489 75.871 C 321.539 75.871 321.599 75.881 321.649 75.881 C 322.439 75.881 323.239 75.881 324.029 75.881 C 324.109 75.881 324.179 75.871 324.259 75.871 C 324.369 75.891 324.369 75.831 324.369 75.751 C 324.369 74.691 324.369 73.641 324.369 72.581 C 324.369 72.521 324.389 72.461 324.349 72.401 C 324.359 72.331 324.359 72.261 324.339 72.201 C 324.359 72.181 324.379 72.161 324.379 72.141 C 324.419 72.141 324.459 72.141 324.489 72.141 C 325.289 72.141 326.089 72.141 326.889 72.141 C 326.989 72.141 327.099 72.151 327.199 72.131 L 327.209 72.141 L 327.219 72.131 C 327.239 72.141 327.269 72.151 327.289 72.131 C 327.359 72.131 327.359 72.081 327.359 72.031 C 327.359 71.971 327.349 71.911 327.349 71.851 C 327.349 70.981 327.349 70.111 327.349 69.241 C 327.349 69.041 327.339 69.041 327.149 69.051 C 327.119 69.051 327.099 69.051 327.069 69.051 C 326.229 69.051 325.379 69.051 324.539 69.051 C 324.379 69.051 324.379 69.051 324.349 68.881 C 324.369 68.841 324.369 68.791 324.349 68.751 C 324.359 68.661 324.399 68.571 324.429 68.491 C 324.469 68.461 324.509 68.431 324.529 68.381 C 324.649 68.321 324.779 68.291 324.919 68.291 C 325.519 68.291 326.129 68.291 326.729 68.291 C 327.119 68.291 327.499 68.281 327.889 68.301 C 327.969 68.301 328.009 68.271 328.019 68.191 C 328.019 68.151 328.019 68.111 328.019 68.081 C 328.019 67.191 328.019 66.291 328.029 65.401 C 328.009 65.361 328.019 65.331 327.979 65.341 Z " fill="rgb(237,237,237)"/><path d=" M 356.629 71.301 C 356.629 71.201 356.639 71.111 356.619 71.011 C 356.629 70.981 356.639 70.941 356.619 70.911 C 356.619 70.861 356.589 70.841 356.549 70.851 C 356.469 70.851 356.399 70.851 356.319 70.851 C 356.009 70.861 355.699 70.841 355.389 70.861 C 355.029 70.841 354.669 70.841 354.299 70.861 C 354.109 70.841 353.909 70.851 353.709 70.851 C 353.579 70.851 353.579 70.861 353.579 70.991 C 353.579 71.571 353.579 72.151 353.579 72.731 C 353.579 72.831 353.539 72.881 353.449 72.911 C 353.369 72.871 353.289 72.881 353.209 72.891 C 353.119 72.831 353.009 72.871 352.909 72.841 C 352.759 72.791 352.609 72.751 352.459 72.711 C 352.409 72.661 352.349 72.641 352.279 72.621 C 352.269 72.601 352.259 72.591 352.229 72.591 C 352.219 72.561 352.189 72.551 352.159 72.551 C 352.159 72.531 352.149 72.531 352.139 72.531 C 352.119 72.511 352.089 72.491 352.059 72.491 C 352.049 72.461 352.029 72.451 351.999 72.451 C 351.929 72.361 351.809 72.311 351.739 72.211 L 351.739 72.221 C 351.699 72.181 351.679 72.131 351.619 72.131 L 351.619 72.121 L 351.609 72.121 C 351.589 72.061 351.549 72.001 351.499 71.961 C 351.489 71.931 351.469 71.901 351.439 71.881 C 351.439 71.861 351.429 71.851 351.419 71.851 C 351.409 71.831 351.399 71.811 351.379 71.801 C 351.379 71.781 351.369 71.771 351.359 71.761 C 351.349 71.731 351.349 71.701 351.309 71.691 C 351.299 71.671 351.279 71.651 351.269 71.621 C 351.239 71.511 351.209 71.401 351.139 71.301 C 351.149 71.261 351.149 71.231 351.119 71.201 C 351.109 71.071 351.049 70.941 351.039 70.811 C 351.039 70.681 351.039 70.541 351.039 70.411 C 351.059 70.361 351.059 70.301 351.049 70.251 C 351.059 70.231 351.069 70.201 351.059 70.171 C 351.099 70.121 351.129 70.061 351.119 69.991 C 351.249 69.591 351.449 69.231 351.769 68.951 C 351.799 68.921 351.819 68.891 351.849 68.861 C 351.869 68.861 351.869 68.851 351.869 68.841 C 351.919 68.811 351.969 68.781 352.009 68.741 C 352.049 68.741 352.069 68.721 352.089 68.691 C 352.119 68.691 352.129 68.671 352.139 68.651 C 352.159 68.651 352.169 68.641 352.179 68.631 C 352.219 68.631 352.249 68.621 352.269 68.591 C 352.459 68.501 352.659 68.431 352.849 68.361 C 352.889 68.371 352.919 68.371 352.949 68.341 C 353.059 68.331 353.169 68.311 353.279 68.311 C 353.409 68.301 353.539 68.301 353.659 68.291 C 353.699 68.301 353.749 68.301 353.789 68.291 C 354.009 68.311 354.219 68.311 354.439 68.291 C 354.459 68.301 354.489 68.301 354.509 68.291 C 354.789 68.311 355.069 68.311 355.359 68.291 C 355.409 68.301 355.449 68.301 355.499 68.291 C 355.809 68.311 356.119 68.291 356.429 68.301 C 356.569 68.301 356.579 68.291 356.579 68.141 C 356.579 67.621 356.579 67.111 356.579 66.591 C 356.579 66.201 356.579 65.811 356.589 65.421 C 356.589 65.371 356.589 65.321 356.519 65.321 C 356.479 65.301 356.449 65.301 356.409 65.311 C 356.389 65.311 356.369 65.301 356.349 65.301 C 355.349 65.301 354.339 65.301 353.339 65.301 C 353.299 65.301 353.249 65.291 353.209 65.311 C 353.149 65.301 353.079 65.301 353.019 65.321 C 352.829 65.311 352.639 65.341 352.449 65.391 C 352.379 65.381 352.299 65.381 352.239 65.431 C 352.179 65.421 352.129 65.451 352.079 65.471 C 352.019 65.461 351.959 65.481 351.909 65.511 C 351.879 65.511 351.859 65.511 351.849 65.541 C 351.819 65.541 351.799 65.541 351.779 65.561 C 351.759 65.551 351.739 65.561 351.719 65.571 C 351.689 65.561 351.669 65.571 351.649 65.591 C 351.589 65.591 351.529 65.631 351.479 65.651 C 351.419 65.651 351.369 65.681 351.329 65.721 C 351.299 65.721 351.279 65.731 351.259 65.751 C 351.239 65.751 351.219 65.751 351.209 65.771 C 351.149 65.791 351.099 65.801 351.059 65.851 C 351.039 65.861 351.029 65.871 351.009 65.881 C 350.989 65.881 350.979 65.881 350.979 65.901 C 350.959 65.901 350.929 65.911 350.919 65.931 C 350.889 65.931 350.869 65.941 350.859 65.961 C 350.519 66.121 350.229 66.341 349.949 66.591 C 349.799 66.721 349.639 66.851 349.529 67.011 C 349.509 67.011 349.499 67.031 349.489 67.051 C 349.419 67.081 349.389 67.151 349.339 67.201 L 349.329 67.201 L 349.329 67.211 C 349.219 67.301 349.159 67.421 349.069 67.531 C 348.569 68.191 348.259 68.931 348.129 69.751 C 348.069 70.091 348.059 70.441 348.069 70.791 C 348.089 71.281 348.159 71.771 348.309 72.241 C 348.439 72.651 348.629 73.041 348.859 73.401 C 349.209 73.941 349.649 74.401 350.149 74.801 C 350.489 75.071 350.869 75.271 351.249 75.471 C 351.339 75.511 351.429 75.551 351.529 75.561 L 351.539 75.561 C 351.619 75.621 351.719 75.651 351.819 75.661 C 351.879 75.701 351.939 75.711 352.009 75.711 C 352.029 75.731 352.059 75.731 352.079 75.731 C 352.369 75.841 352.679 75.871 352.989 75.881 C 353.069 75.921 353.149 75.901 353.229 75.901 C 354.259 75.901 355.289 75.901 356.319 75.901 C 356.369 75.901 356.419 75.891 356.469 75.891 C 356.519 75.911 356.579 75.931 356.619 75.871 C 356.629 75.871 356.639 75.861 356.629 75.851 C 356.649 75.841 356.649 75.821 356.639 75.811 C 356.639 75.061 356.639 74.301 356.639 73.551 C 356.639 73.541 356.639 73.531 356.629 73.521 C 356.629 73.481 356.639 73.431 356.639 73.391 C 356.629 72.671 356.629 71.981 356.629 71.301 Z  M 352.189 65.481 L 352.189 65.481 L 352.189 65.481 L 352.189 65.481 Z " fill="rgb(237,237,237)"/><path d=" M 335.949 75.461 C 335.949 74.711 335.939 73.961 335.929 73.211 C 335.929 73.111 335.969 72.981 335.909 72.911 C 335.839 72.831 335.709 72.881 335.609 72.881 C 334.569 72.881 333.529 72.881 332.489 72.881 C 332.279 72.881 332.079 72.891 331.869 72.861 C 331.739 72.771 331.629 72.671 331.579 72.531 C 331.579 72.491 331.579 72.451 331.579 72.421 C 331.579 70.151 331.579 67.871 331.579 65.601 C 331.579 65.531 331.579 65.471 331.579 65.401 C 331.579 65.331 331.549 65.301 331.489 65.291 C 331.459 65.291 331.419 65.291 331.389 65.291 C 330.489 65.291 329.589 65.291 328.689 65.291 C 328.559 65.291 328.539 65.301 328.539 65.441 C 328.539 66.511 328.539 67.591 328.539 68.661 C 328.539 70.101 328.539 71.541 328.539 72.981 C 328.539 73.091 328.539 73.211 328.599 73.311 C 328.589 73.341 328.599 73.361 328.609 73.381 C 328.599 73.431 328.599 73.471 328.629 73.511 C 328.619 73.561 328.639 73.601 328.679 73.641 C 328.669 73.671 328.679 73.681 328.699 73.701 C 328.689 73.751 328.699 73.801 328.739 73.841 C 328.739 73.871 328.759 73.901 328.779 73.921 C 328.779 73.961 328.789 74.001 328.829 74.031 C 328.829 74.061 328.839 74.081 328.869 74.101 C 328.869 74.151 328.889 74.181 328.909 74.221 C 329.109 74.561 329.349 74.861 329.649 75.111 C 329.679 75.141 329.699 75.171 329.739 75.171 L 329.739 75.171 C 329.769 75.201 329.789 75.231 329.819 75.251 C 330.279 75.601 330.799 75.811 331.379 75.861 C 331.869 75.901 332.359 75.881 332.849 75.871 C 332.899 75.891 332.959 75.881 333.009 75.881 C 333.509 75.881 334.019 75.881 334.519 75.881 C 334.569 75.881 334.629 75.891 334.679 75.871 C 335.009 75.891 335.329 75.881 335.659 75.871 C 335.719 75.891 335.769 75.891 335.829 75.871 C 335.899 75.871 335.959 75.861 335.939 75.771 C 335.959 75.671 335.949 75.571 335.949 75.461 Z " fill="rgb(237,237,237)"/><path d=" M 319.969 65.471 C 319.969 65.401 319.909 65.341 319.839 65.341 L 317.219 65.341 C 317.149 65.341 317.089 65.401 317.089 65.471 L 317.089 67.851 L 319.979 67.851 L 319.979 65.471 L 319.969 65.471 Z " fill="rgb(237,237,237)"/><rect x="317.079" y="68.001" width="2.89" height="2.52" transform="matrix(1,0,0,1,0,0)" fill="rgb(237,237,237)"/><rect x="317.079" y="70.661" width="2.89" height="2.52" transform="matrix(1,0,0,1,0,0)" fill="rgb(237,237,237)"/><path d=" M 319.839 75.841 C 319.909 75.841 319.969 75.781 319.969 75.711 L 319.969 73.331 L 317.079 73.331 L 317.079 75.711 C 317.079 75.781 317.139 75.841 317.209 75.841 L 319.839 75.841 Z " fill="rgb(237,237,237)"/><path d=" M 341.839 65.231 C 338.879 65.231 336.479 67.631 336.479 70.591 C 336.479 73.551 338.879 75.951 341.839 75.951 C 344.799 75.951 347.199 73.551 347.199 70.591 C 347.199 67.631 344.799 65.231 341.839 65.231 Z  M 341.839 72.901 C 340.559 72.901 339.529 71.861 339.529 70.591 C 339.529 69.321 340.569 68.281 341.839 68.281 C 343.109 68.281 344.149 69.321 344.149 70.591 C 344.149 71.861 343.119 72.901 341.839 72.901 Z " fill="rgb(237,237,237)"/><path d=" M 362.529 65.231 C 359.569 65.231 357.169 67.631 357.169 70.591 C 357.169 73.551 359.569 75.951 362.529 75.951 C 365.489 75.951 367.889 73.551 367.889 70.591 C 367.879 67.631 365.489 65.231 362.529 65.231 Z  M 362.529 72.901 C 361.249 72.901 360.219 71.861 360.219 70.591 C 360.219 69.321 361.259 68.281 362.529 68.281 C 363.809 68.281 364.839 69.321 364.839 70.591 C 364.839 71.861 363.809 72.901 362.529 72.901 Z " fill="rgb(237,237,237)"/></g><g id="Group"><path d=" M 312.079 65.301 L 312.949 65.301 C 313.559 65.301 313.819 65.571 313.819 65.951 C 313.819 66.291 313.589 66.491 313.319 66.551 L 313.319 66.561 C 313.639 66.621 313.909 66.831 313.909 67.191 C 313.909 67.571 313.659 67.891 313.039 67.891 L 312.089 67.891 L 312.079 65.301 L 312.079 65.301 Z  M 312.939 66.481 C 313.379 66.481 313.649 66.321 313.649 65.971 C 313.649 65.621 313.429 65.471 312.949 65.471 L 312.259 65.471 L 312.259 66.491 L 312.939 66.481 L 312.939 66.481 Z  M 313.049 67.731 C 313.529 67.731 313.739 67.531 313.739 67.191 C 313.739 66.811 313.439 66.641 312.959 66.641 L 312.259 66.641 L 312.259 67.731 C 312.259 67.731 313.049 67.731 313.049 67.731 Z " fill="rgb(237,237,237)"/><path d=" M 315.079 66.741 L 314.219 65.301 L 314.419 65.301 L 315.179 66.591 L 315.929 65.301 L 316.119 65.301 L 315.259 66.741 L 315.259 67.891 L 315.089 67.891 L 315.089 66.741 L 315.079 66.741 Z " fill="rgb(237,237,237)"/></g></g></g></svg>